<svg width="16" height="18" viewBox="0 0 16 18" fill="none" xmlns="http://www.w3.org/2000/svg">
<path d="M10.1258 1.28421C6.69696 2.18167 4.93381 2.68535 4.76547 2.81356C4.29589 3.17071 4.30475 3.06082 4.30475 8.57381V13.7113L3.59595 13.6655C1.28348 13.5282 -0.727753 15.6253 0.255711 17.1363C0.680993 17.7865 1.73534 18.1345 2.72766 17.9514C3.81745 17.7499 4.73003 17.173 5.30593 16.3121L5.58945 15.8909L5.63375 11.0006L5.67805 6.11036L10.0638 4.93817C12.4737 4.28796 14.4761 3.75681 14.5204 3.75681C14.5558 3.75681 14.5824 5.5609 14.5824 7.75877V11.7699L13.847 11.7424C10.9232 11.6234 9.03601 14.7919 11.4016 15.8268C11.8092 16.0008 11.9953 16.0283 12.6775 16.0008C14.2812 15.9275 15.6545 15.0301 15.9114 13.867C15.9557 13.6747 16 10.6252 16 7.09941C16 1.17431 15.9911 0.661478 15.8405 0.377586C15.7519 0.185272 15.6013 0.0295906 15.4684 0.00211716C15.3266 -0.0345154 13.4926 0.40506 10.1258 1.28421Z" fill="white"/>
</svg>
